<?xml version="1.0" standalone="no"?><!DOCTYPE svg PUBLIC "-//W3C//DTD SVG 1.1//EN" "http://www.w3.org/Graphics/SVG/1.1/DTD/svg11.dtd"><svg t="1741877875313"  viewBox="0 0 1024 1024" version="1.1" xmlns="http://www.w3.org/2000/svg" p-id="1558" xmlns:xlink="http://www.w3.org/1999/xlink" width="200" height="200"><path d="M511.52 429.344l204.224-221.856a48 48 0 0 1 73.792 61.248l-3.168 3.776-209.6 227.712 209.6 227.68a48 48 0 0 1 0.64 64.32l-3.424 3.52a48 48 0 0 1-64.32 0.64l-3.52-3.456-204.224-221.856-204.192 221.856a48 48 0 0 1-64.064 5.952l-3.776-3.136a48 48 0 0 1-5.952-64.032l3.136-3.808 209.6-227.68-209.6-227.712a48 48 0 0 1-0.64-64.32l3.456-3.52a48 48 0 0 1 64.32-0.64l3.52 3.456 204.16 221.856 204.256-221.856-204.224 221.856z" fill="current color" p-id="1559"></path></svg>